{
    "asset" : {
        "generator" : "Khronos glTF Blender I/O v1.7.33",
        "version" : "2.0"
    },
    "extensionsUsed" : [
        "KHR_materials_clearcoat"
    ],
    "scene" : 0,
    "scenes" : [
        {
            "name" : "Scene",
            "nodes" : [
                0,
                2,
                3,
                4,
                5,
                6
            ]
        }
    ],
    "nodes" : [
        {
            "mesh" : 0,
            "name" : "Plane",
            "scale" : [
                0.16664183139801025,
                0.16664183139801025,
                0.16664183139801025
            ]
        },
        {
            "mesh" : 1,
            "name" : "Icing"
        },
        {
            "children" : [
                1
            ],
            "mesh" : 2,
            "name" : "Breadnut",
            "rotation" : [
                0.45315390825271606,
                -0.784885585308075,
                -0.21130910515785217,
                0.3659980893135071
            ],
            "translation" : [
                0,
                0.018014993518590927,
                0
            ]
        },
        {
            "mesh" : 3,
            "name" : "Cylinder",
            "translation" : [
                0.051814254373311996,
                0.03412308543920517,
                0.08427593857049942
            ]
        },
        {
            "mesh" : 4,
            "name" : "Cylinder.001",
            "translation" : [
                0.06068878993391991,
                0.03412308543920517,
                0.08427593857049942
            ]
        },
        {
            "mesh" : 5,
            "name" : "Cylinder.002",
            "translation" : [
                0.0434480682015419,
                0.03412308543920517,
                0.08427593857049942
            ]
        },
        {
            "mesh" : 6,
            "name" : "Cylinder.003",
            "translation" : [
                0.0706961452960968,
                0.03412308543920517,
                0.08427593857049942
            ]
        }
    ],
    "animations" : [
        {
            "channels" : [
                {
                    "sampler" : 0,
                    "target" : {
                        "node" : 2,
                        "path" : "rotation"
                    }
                }
            ],
            "name" : "BreadnutAction",
            "samplers" : [
                {
                    "input" : 27,
                    "interpolation" : "LINEAR",
                    "output" : 28
                }
            ]
        }
    ],
    "materials" : [
        {
            "doubleSided" : true,
            "extensions" : {
                "KHR_materials_clearcoat" : {
                    "clearcoatFactor" : 0.6047619581222534,
                    "clearcoatRoughnessFactor" : 0.21095234155654907
                }
            },
            "name" : "Table",
            "pbrMetallicRoughness" : {
                "baseColorFactor" : [
                    0.2140234261751175,
                    0.08407783508300781,
                    0.04323792830109596,
                    1
                ],
                "metallicFactor" : 0,
                "roughnessFactor" : 0.9476190209388733
            }
        },
        {
            "doubleSided" : true,
            "name" : "Icing",
            "pbrMetallicRoughness" : {
                "baseColorFactor" : [
                    0.8000000715255737,
                    0.3201069235801697,
                    0.7630472183227539,
                    1
                ],
                "metallicFactor" : 0,
                "roughnessFactor" : 0.2952377498149872
            }
        },
        {
            "doubleSided" : true,
            "name" : "Bread",
            "pbrMetallicRoughness" : {
                "baseColorTexture" : {
                    "index" : 0
                },
                "metallicFactor" : 0,
                "roughnessFactor" : 0.5
            }
        },
        {
            "doubleSided" : true,
            "name" : "Sprinkles",
            "pbrMetallicRoughness" : {
                "metallicFactor" : 0,
                "roughnessFactor" : 0.5
            }
        }
    ],
    "meshes" : [
        {
            "name" : "Plane",
            "primitives" : [
                {
                    "attributes" : {
                        "POSITION" : 0,
                        "NORMAL" : 1,
                        "TEXCOORD_0" : 2
                    },
                    "indices" : 3,
                    "material" : 0
                }
            ]
        },
        {
            "name" : "Torus.001",
            "primitives" : [
                {
                    "attributes" : {
                        "POSITION" : 4,
                        "NORMAL" : 5,
                        "TEXCOORD_0" : 6
                    },
                    "indices" : 7,
                    "material" : 1
                }
            ]
        },
        {
            "name" : "Torus",
            "primitives" : [
                {
                    "attributes" : {
                        "POSITION" : 8,
                        "NORMAL" : 9,
                        "TEXCOORD_0" : 10
                    },
                    "indices" : 11,
                    "material" : 2
                }
            ]
        },
        {
            "name" : "Cylinder",
            "primitives" : [
                {
                    "attributes" : {
                        "POSITION" : 12,
                        "NORMAL" : 13,
                        "TEXCOORD_0" : 14
                    },
                    "indices" : 15,
                    "material" : 3
                }
            ]
        },
        {
            "name" : "Cylinder.001",
            "primitives" : [
                {
                    "attributes" : {
                        "POSITION" : 16,
                        "NORMAL" : 17,
                        "TEXCOORD_0" : 18
                    },
                    "indices" : 19,
                    "material" : 3
                }
            ]
        },
        {
            "name" : "Cylinder.002",
            "primitives" : [
                {
                    "attributes" : {
                        "POSITION" : 20,
                        "NORMAL" : 21,
                        "TEXCOORD_0" : 22
                    },
                    "indices" : 15,
                    "material" : 3
                }
            ]
        },
        {
            "name" : "Cylinder.003",
            "primitives" : [
                {
                    "attributes" : {
                        "POSITION" : 23,
                        "NORMAL" : 24,
                        "TEXCOORD_0" : 25
                    },
                    "indices" : 26,
                    "material" : 3
                }
            ]
        }
    ],
    "textures" : [
        {
            "sampler" : 0,
            "source" : 0
        }
    ],
    "images" : [
        {
            "bufferView" : 12,
            "mimeType" : "image/png",
            "name" : "Donut Base"
        }
    ],
    "accessors" : [
        {
            "bufferView" : 0,
            "componentType" : 5126,
            "count" : 4,
            "max" : [
                1,
                0,
                1
            ],
            "min" : [
                -1,
                0,
                -1
            ],
            "type" : "VEC3"
        },
        {
            "bufferView" : 1,
            "componentType" : 5126,
            "count" : 4,
            "type" : "VEC3"
        },
        {
            "bufferView" : 2,
            "componentType" : 5126,
            "count" : 4,
            "type" : "VEC2"
        },
        {
            "bufferView" : 3,
            "componentType" : 5123,
            "count" : 6,
            "type" : "SCALAR"
        },
        {
            "bufferView" : 4,
            "componentType" : 5126,
            "count" : 12484,
            "max" : [
                0.04763006046414375,
                0.02000392973423004,
                0.048446591943502426
            ],
            "min" : [
                -0.048938266932964325,
                -0.0105708884075284,
                -0.048900943249464035
            ],
            "type" : "VEC3"
        },
        {
            "bufferView" : 5,
            "componentType" : 5126,
            "count" : 12484,
            "type" : "VEC3"
        },
        {
            "bufferView" : 6,
            "componentType" : 5126,
            "count" : 12484,
            "type" : "VEC2"
        },
        {
            "bufferView" : 7,
            "componentType" : 5123,
            "count" : 70272,
            "type" : "SCALAR"
        },
        {
            "bufferView" : 8,
            "componentType" : 5126,
            "count" : 2831,
            "max" : [
                0.04648078978061676,
                0.01801043562591076,
                0.046924252063035965
            ],
            "min" : [
                -0.04726896062493324,
                -0.018179982900619507,
                -0.04716632142663002
            ],
            "type" : "VEC3"
        },
        {
            "bufferView" : 9,
            "componentType" : 5126,
            "count" : 2831,
            "type" : "VEC3"
        },
        {
            "bufferView" : 10,
            "componentType" : 5126,
            "count" : 2831,
            "type" : "VEC2"
        },
        {
            "bufferView" : 11,
            "componentType" : 5123,
            "count" : 15360,
            "type" : "SCALAR"
        },
        {
            "bufferView" : 13,
            "componentType" : 5126,
            "count" : 189,
            "max" : [
                0.0008173122187145054,
                0.0008173123351298273,
                0.004276713822036982
            ],
            "min" : [
                -0.0008173122187145054,
                -0.0008173122187145054,
                -0.00428081164136529
            ],
            "type" : "VEC3"
        },
        {
            "bufferView" : 14,
            "componentType" : 5126,
            "count" : 189,
            "type" : "VEC3"
        },
        {
            "bufferView" : 15,
            "componentType" : 5126,
            "count" : 189,
            "type" : "VEC2"
        },
        {
            "bufferView" : 16,
            "componentType" : 5123,
            "count" : 672,
            "type" : "SCALAR"
        },
        {
            "bufferView" : 17,
            "componentType" : 5126,
            "count" : 222,
            "max" : [
                0.0011811809381470084,
                0.0007788821822032332,
                0.004276713822036982
            ],
            "min" : [
                -0.0007815654389560223,
                -0.0012670515570789576,
                -0.008186048828065395
            ],
            "type" : "VEC3"
        },
        {
            "bufferView" : 18,
            "componentType" : 5126,
            "count" : 222,
            "type" : "VEC3"
        },
        {
            "bufferView" : 19,
            "componentType" : 5126,
            "count" : 222,
            "type" : "VEC2"
        },
        {
            "bufferView" : 20,
            "componentType" : 5123,
            "count" : 864,
            "type" : "SCALAR"
        },
        {
            "bufferView" : 21,
            "componentType" : 5126,
            "count" : 189,
            "max" : [
                0.0008173122187145054,
                0.0008173123351298273,
                0.004276713822036982
            ],
            "min" : [
                -0.0008173122187145054,
                -0.0008173122187145054,
                0.0009913027752190828
            ],
            "type" : "VEC3"
        },
        {
            "bufferView" : 22,
            "componentType" : 5126,
            "count" : 189,
            "type" : "VEC3"
        },
        {
            "bufferView" : 23,
            "componentType" : 5126,
            "count" : 189,
            "type" : "VEC2"
        },
        {
            "bufferView" : 24,
            "componentType" : 5126,
            "count" : 261,
            "max" : [
                0.001917743356898427,
                0.0008173123351298273,
                0.004276713822036982
            ],
            "min" : [
                -0.0007690138882026076,
                -0.0008173122769221663,
                -0.00428081164136529
            ],
            "type" : "VEC3"
        },
        {
            "bufferView" : 25,
            "componentType" : 5126,
            "count" : 261,
            "type" : "VEC3"
        },
        {
            "bufferView" : 26,
            "componentType" : 5126,
            "count" : 261,
            "type" : "VEC2"
        },
        {
            "bufferView" : 27,
            "componentType" : 5123,
            "count" : 1056,
            "type" : "SCALAR"
        },
        {
            "bufferView" : 28,
            "componentType" : 5126,
            "count" : 301,
            "max" : [
                10.033333333333333
            ],
            "min" : [
                0.03333333333333333
            ],
            "type" : "SCALAR"
        },
        {
            "bufferView" : 29,
            "componentType" : 5126,
            "count" : 301,
            "type" : "VEC4"
        }
    ],
    "bufferViews" : [
        {
            "buffer" : 0,
            "byteLength" : 48,
            "byteOffset" : 0
        },
        {
            "buffer" : 0,
            "byteLength" : 48,
            "byteOffset" : 48
        },
        {
            "buffer" : 0,
            "byteLength" : 32,
            "byteOffset" : 96
        },
        {
            "buffer" : 0,
            "byteLength" : 12,
            "byteOffset" : 128
        },
        {
            "buffer" : 0,
            "byteLength" : 149808,
            "byteOffset" : 140
        },
        {
            "buffer" : 0,
            "byteLength" : 149808,
            "byteOffset" : 149948
        },
        {
            "buffer" : 0,
            "byteLength" : 99872,
            "byteOffset" : 299756
        },
        {
            "buffer" : 0,
            "byteLength" : 140544,
            "byteOffset" : 399628
        },
        {
            "buffer" : 0,
            "byteLength" : 33972,
            "byteOffset" : 540172
        },
        {
            "buffer" : 0,
            "byteLength" : 33972,
            "byteOffset" : 574144
        },
        {
            "buffer" : 0,
            "byteLength" : 22648,
            "byteOffset" : 608116
        },
        {
            "buffer" : 0,
            "byteLength" : 30720,
            "byteOffset" : 630764
        },
        {
            "buffer" : 0,
            "byteLength" : 32228,
            "byteOffset" : 661484
        },
        {
            "buffer" : 0,
            "byteLength" : 2268,
            "byteOffset" : 693712
        },
        {
            "buffer" : 0,
            "byteLength" : 2268,
            "byteOffset" : 695980
        },
        {
            "buffer" : 0,
            "byteLength" : 1512,
            "byteOffset" : 698248
        },
        {
            "buffer" : 0,
            "byteLength" : 1344,
            "byteOffset" : 699760
        },
        {
            "buffer" : 0,
            "byteLength" : 2664,
            "byteOffset" : 701104
        },
        {
            "buffer" : 0,
            "byteLength" : 2664,
            "byteOffset" : 703768
        },
        {
            "buffer" : 0,
            "byteLength" : 1776,
            "byteOffset" : 706432
        },
        {
            "buffer" : 0,
            "byteLength" : 1728,
            "byteOffset" : 708208
        },
        {
            "buffer" : 0,
            "byteLength" : 2268,
            "byteOffset" : 709936
        },
        {
            "buffer" : 0,
            "byteLength" : 2268,
            "byteOffset" : 712204
        },
        {
            "buffer" : 0,
            "byteLength" : 1512,
            "byteOffset" : 714472
        },
        {
            "buffer" : 0,
            "byteLength" : 3132,
            "byteOffset" : 715984
        },
        {
            "buffer" : 0,
            "byteLength" : 3132,
            "byteOffset" : 719116
        },
        {
            "buffer" : 0,
            "byteLength" : 2088,
            "byteOffset" : 722248
        },
        {
            "buffer" : 0,
            "byteLength" : 2112,
            "byteOffset" : 724336
        },
        {
            "buffer" : 0,
            "byteLength" : 1204,
            "byteOffset" : 726448
        },
        {
            "buffer" : 0,
            "byteLength" : 4816,
            "byteOffset" : 727652
        }
    ],
    "samplers" : [
        {
            "magFilter" : 9729,
            "minFilter" : 9987
        }
    ],
    "buffers" : [
        {
            "byteLength" : 732468,
            "uri" : "data:application/octet-stream;base64,"
        }
    ]
}
